<?xml version="1.0" standalone="no"?>
<!DOCTYPE svg PUBLIC "-//W3C//DTD SVG 20010904//EN"
 "http://www.w3.org/TR/2001/REC-SVG-20010904/DTD/svg10.dtd">
<svg version="1.0" xmlns="http://www.w3.org/2000/svg"
 width="400.000000pt" height="182.000000pt" viewBox="0 0 400.000000 182.000000"
 preserveAspectRatio="xMidYMid meet">

<g transform="translate(0.000000,182.000000) scale(0.100000,-0.100000)"
fill="#000000" stroke="none">
<path d="M0 910 l0 -910 405 0 c243 0 405 4 405 9 0 5 10 11 22 13 18 2 28 18
48 73 41 110 78 174 129 225 l47 47 -71 66 c-85 77 -129 154 -145 249 -22 141
35 264 162 352 91 62 178 86 339 93 l139 6 0 144 0 143 -45 0 -46 0 3 78 3 77
263 3 262 2 0 -382 c0 -357 1 -385 19 -414 20 -33 75 -64 113 -64 33 0 85 35
108 72 19 31 20 51 20 411 l0 377 280 0 280 0 0 -80 0 -80 -50 0 -50 0 0 -165
c0 -103 -4 -165 -10 -165 -6 0 -10 65 -10 175 l0 175 50 0 50 0 0 60 0 60
-260 0 -260 0 0 -377 c0 -360 -1 -380 -20 -411 -56 -92 -207 -97 -261 -8 -18
29 -19 57 -19 414 l0 382 -242 -2 -243 -3 -3 -57 -3 -58 46 0 45 0 0 -150 0
-150 75 0 75 0 0 -55 c0 -52 -1 -55 -25 -55 l-25 0 0 -169 0 -169 51 -41 c78
-62 146 -85 259 -85 83 -1 102 3 153 26 32 15 71 36 87 48 15 11 33 20 39 20
7 0 11 -47 11 -146 0 -161 -6 -186 -62 -243 -52 -53 -84 -64 -189 -69 l-96 -4
-29 78 -30 79 -87 3 -87 3 0 -141 0 -140 278 0 c294 0 346 6 433 51 28 14 45
17 51 11 13 -13 -52 -47 -129 -67 -45 -12 -123 -15 -355 -15 l-298 0 0 160 0
161 107 -3 107 -3 30 -79 29 -78 76 4 c84 5 121 20 169 69 53 55 62 85 62 214
0 64 -3 115 -8 113 -126 -64 -146 -70 -225 -75 -128 -8 -241 24 -325 93 l-32
27 2 -319 3 -319 23 -3 c12 -2 22 -8 22 -13 0 -5 214 -9 543 -8 344 1 521 5
483 10 -118 17 -245 96 -293 183 l-28 51 -5 370 -5 370 -22 10 c-17 7 -23 18
-23 42 l0 33 175 0 174 0 3 -465 3 -465 32 -31 c44 -45 102 -45 146 0 l32 31
3 465 3 465 109 0 109 0 3 -42 c2 -36 7 -44 26 -46 l22 -3 0 -396 0 -396 -25
-33 c-52 -69 -165 -127 -274 -143 -33 -5 192 -9 557 -10 l612 -1 0 910 0 910
-2000 0 -2000 0 0 -910z m703 201 c77 -20 140 -53 189 -99 l27 -25 -28 -36
c-117 -149 -97 -349 50 -499 61 -62 66 -103 20 -161 -34 -43 -78 -128 -101
-196 -19 -57 -30 -62 -132 -64 l-68 -1 0 195 0 195 -90 0 -90 0 0 -195 0 -195
-190 0 -190 0 0 50 c0 47 2 50 25 50 l25 0 0 145 0 145 -25 0 c-23 0 -25 4
-25 45 0 41 2 45 24 45 l24 0 4 188 c3 184 3 188 32 239 84 152 309 227 519
174z m2885 -57 c84 -17 187 -60 240 -101 38 -29 71 -93 72 -137 0 -59 -23
-106 -73 -152 -28 -25 -46 -48 -41 -52 5 -5 29 -24 54 -44 25 -20 59 -60 75
-89 26 -48 30 -64 29 -134 0 -136 -49 -205 -189 -271 -112 -54 -180 -64 -432
-64 l-223 0 0 39 c0 33 4 40 23 43 l22 3 0 450 0 450 -22 3 c-19 3 -23 10 -23
38 l0 34 205 0 c147 0 228 -4 283 -16z"/>
<path d="M533 1030 c-47 -19 -53 -52 -53 -295 l0 -225 90 0 90 0 0 220 c0 236
-4 261 -52 294 -25 18 -42 19 -75 6z"/>
<path d="M3467 983 c-4 -3 -7 -78 -7 -165 0 -172 4 -183 55 -160 73 34 109
166 66 249 -31 61 -90 101 -114 76z"/>
<path d="M3467 563 c-11 -10 -8 -461 3 -468 15 -9 82 23 116 56 43 42 57 99
52 206 -5 93 -20 136 -66 186 -19 20 -35 27 -62 27 -20 0 -40 -3 -43 -7z"/>
<path d="M1212 1001 c-46 -47 -67 -119 -66 -231 1 -138 48 -291 112 -370 39
-48 42 -23 40 311 l-3 314 -26 3 c-19 2 -35 -6 -57 -27z"/>
<path d="M1233 218 c-43 -45 -84 -117 -101 -181 l-10 -37 89 0 90 0 -3 127
c-2 75 -7 128 -13 130 -6 2 -29 -16 -52 -39z"/>
</g>
</svg>
